# xmcd
#
# Track frame offsets:
#	150
#	9918
#	33602
#	56203
#	72145
#	96036
#	119280
#	136477
#	156881
#	185188
#	208488
#	229727
#	257412
#	282333
#	290447
#	306877
#
# Disc length: 4426 seconds
#
# Revision: 1
# Processed by: cddbd v1.4PL0 Copyright (c) Steve Scherf et al.
# Submitted via: audiograbber 1.80
#
DISCID=f1114810
DTITLE=Absolute Beginner - Flashnizm
DYEAR=1900
DGENRE=
TTITLE0=Dum Dum
TTITLE1=Burna
TTITLE2=McFly
TTITLE3=Boogie Down Brown
TTITLE4=Pissen from Outa Space
TTITLE5=Natural Born Chillas
TTITLE6=Frehnwarts Nutzsignal
TTITLE7=Ich and die Beginner
TTITLE8=Spacemadness
TTITLE9=Get Funky Bulle
TTITLE10=Dr. Oktopuss TV
TTITLE11=1:0 fr Babylon
TTITLE12=Deep Glass
TTITLE13=Hip Hop muss am Leben bleiben
TTITLE14=Rock das Haus
TTITLE15=Rap Miles
EXTD=
EXTT0=
EXTT1=
EXTT2=
EXTT3=
EXTT4=
EXTT5=
EXTT6=
EXTT7=
EXTT8=
EXTT9=
EXTT10=
EXTT11=
EXTT12=
EXTT13=
EXTT14=
EXTT15=
PLAYORDER=
